<?xml version="1.0" encoding="UTF-8" standalone="no"?>
<svg
   xmlns:dc="http://purl.org/dc/elements/1.1/"
   xmlns:cc="http://creativecommons.org/ns#"
   xmlns:rdf="http://www.w3.org/1999/02/22-rdf-syntax-ns#"
   xmlns:svg="http://www.w3.org/2000/svg"
   xmlns="http://www.w3.org/2000/svg"
   xmlns:sodipodi="http://sodipodi.sourceforge.net/DTD/sodipodi-0.dtd"
   xmlns:inkscape="http://www.inkscape.org/namespaces/inkscape"
   version="1.1"
   x="0px"
   y="0px"
   viewBox="0 0 100 125"
   enable-background="new 0 0 100 100"
   xml:space="preserve"
   id="svg100"
   sodipodi:docname="face.svg"
   inkscape:version="0.92.3 (2405546, 2018-03-11)"><metadata
     id="metadata106"><rdf:RDF><cc:Work
         rdf:about=""><dc:format>image/svg+xml</dc:format><dc:type
           rdf:resource="http://purl.org/dc/dcmitype/StillImage" /><dc:title></dc:title></cc:Work></rdf:RDF></metadata><defs
     id="defs104" /><sodipodi:namedview
     pagecolor="#ffffff"
     bordercolor="#666666"
     borderopacity="1"
     objecttolerance="10"
     gridtolerance="10"
     guidetolerance="10"
     inkscape:pageopacity="0"
     inkscape:pageshadow="2"
     inkscape:window-width="1920"
     inkscape:window-height="1015"
     id="namedview102"
     showgrid="false"
     inkscape:zoom="6.616"
     inkscape:cx="27.781137"
     inkscape:cy="62.5"
     inkscape:window-x="0"
     inkscape:window-y="0"
     inkscape:window-maximized="1"
     inkscape:current-layer="g94" /><g
     id="g94"><path
       fill-rule="evenodd"
       clip-rule="evenodd"
       d="M78.768,50.286c-0.05,3.689-0.481,7.356-1.762,10.886   c-0.718,1.981-1.67,3.832-3.148,5.366c-2.333,2.419-5.186,2.89-8.346,1.612c-1.871-0.757-3.351-2.061-4.559-3.629   c-1.396-1.816-2.686-3.717-4.006-5.591c-1.014-1.44-2.019-2.886-3.393-4.02c-1.168-0.968-2.488-1.485-4.025-1.31   c-1.412,0.161-2.566,0.871-3.493,1.885c-0.935,1.022-1.792,2.121-2.614,3.238c-1.413,1.916-2.717,3.915-4.169,5.802   c-1.265,1.642-2.824,2.987-4.806,3.729c-1.875,0.7-3.776,0.859-5.659,0.026c-1.564-0.691-2.719-1.868-3.663-3.263   c-1.469-2.177-2.335-4.605-2.867-7.153c-1.161-5.566-1.157-11.113,0.418-16.61c0.75-2.618,1.839-5.078,3.614-7.183   c1.028-1.22,2.23-2.209,3.818-2.611c1.246-0.315,2.483-0.139,3.706,0.155c2.018,0.483,3.81,1.484,5.611,2.466   c1.81,0.988,3.604,2.015,5.47,2.883c3.651,1.7,7.333,1.552,10.918-0.212c2.111-1.038,4.146-2.233,6.22-3.35   c1.495-0.805,3.038-1.474,4.703-1.874c2.811-0.677,5.091,0.159,6.968,2.286c1.559,1.767,2.602,3.826,3.38,6.029   C78.272,43.208,78.759,46.688,78.768,50.286z"
       id="path78" /><path
       fill-rule="evenodd"
       clip-rule="evenodd"
       d="M34.234,84.961C20.175,78.765,9.693,63.116,12.001,45.066   c2.396-18.726,18.188-33.039,37.161-33.477c19.411-0.448,35.396,13.353,38.7,31.315c3.533,19.197-7.459,35.682-21.901,42.069   c0.217-0.259,0.395-0.462,0.563-0.676c1.532-1.953,2.373-4.17,2.478-6.653c0.013-0.271,0.106-0.435,0.325-0.592   c6.024-4.366,10.228-10.063,12.468-17.172c1.216-3.855,1.676-7.813,1.432-11.853c-0.392-6.452-2.442-12.323-6.276-17.524   C71.93,23.696,65.292,19.293,56.989,17.55c-7.834-1.645-15.376-0.668-22.425,3.146c-8.869,4.799-14.55,12.168-16.825,22.011   c-2.833,12.251,1.599,24.971,11.333,32.957c0.62,0.509,1.279,0.971,1.907,1.472c0.112,0.089,0.22,0.259,0.226,0.396   c0.116,2.797,1.116,5.231,2.967,7.324C34.188,84.874,34.197,84.897,34.234,84.961z"
       id="path80" /><path
       fill-rule="evenodd"
       clip-rule="evenodd"
       d="M65.849,79.231c0.918,2.013,0.744,3.862-0.532,5.622   c0.084,0.091,0.169,0.178,0.292,0.309c-4.955,2.179-10.105,3.253-15.483,3.259c-5.387,0.006-10.545-1.081-15.508-3.247   c0.101-0.112,0.185-0.205,0.292-0.322c-0.755-1.011-1.173-2.151-1.111-3.435c0.038-0.755,0.223-1.476,0.586-2.174   c4.933,2.633,10.173,3.942,15.728,3.94C55.667,83.183,60.907,81.871,65.849,79.231z"
       id="path82" /><path
       fill-rule="evenodd"
       clip-rule="evenodd"
       d="M66.903,82.734c0.191-1.177,0.031-2.305-0.417-3.401   c-0.744-1.831-2.164-2.873-3.982-3.465c-1.55-0.504-3.152-0.704-4.766-0.841c-1.459-0.127-2.917-0.25-4.374-0.386   c-0.212-0.021-0.422-0.095-0.628-0.159c-2.099-0.66-2.941-2.584-1.987-4.581c0.719-1.506,2.018-2.26,3.579-2.591   c1.706-0.359,3.198,0.097,4.463,1.305c0.331,0.315,0.678,0.621,1.048,0.89c0.544,0.395,1.153,0.532,1.809,0.303   c0.869-0.308,1.266-1.018,1.086-1.928c-0.013-0.061-0.018-0.123-0.028-0.194C67.454,69.887,70.473,76.81,66.903,82.734z"
       id="path84" /><path
       fill-rule="evenodd"
       clip-rule="evenodd"
       d="M37.509,67.666c0,0.073,0.008,0.112-0.001,0.147   c-0.171,0.682-0.033,1.274,0.543,1.707c0.627,0.47,1.333,0.559,2.01,0.163c0.489-0.285,0.936-0.661,1.349-1.053   c1.11-1.055,2.409-1.565,3.934-1.406c1.874,0.193,3.837,1.302,4.371,3.335c0.47,1.787-0.284,3.234-2.025,3.854   c-1.283,0.455-2.626,0.467-3.962,0.535c-1.951,0.102-3.892,0.277-5.772,0.848c-1.432,0.434-2.722,1.103-3.588,2.384   c-0.897,1.328-1.286,2.787-1.042,4.392c0.008,0.05,0.015,0.1,0.021,0.149c0,0.008-0.013,0.016-0.019,0.023   C30.073,77.703,32.017,70.429,37.509,67.666z"
       id="path86" /><path
       fill-rule="evenodd"
       clip-rule="evenodd"
       d="M12.282,37.643c-2.597,8.278-2.591,16.497,0.026,24.791   c-0.13-0.097-0.2-0.136-0.253-0.188c-1.234-1.235-2.485-2.456-3.696-3.714C3.923,53.922,3.873,46.32,8.259,41.652   c1.239-1.319,2.548-2.572,3.826-3.854C12.128,37.756,12.18,37.723,12.282,37.643z"
       id="path88" /><path
       fill-rule="evenodd"
       clip-rule="evenodd"
       d="M88.025,62.057c2.466-8.014,2.472-16.026,0.008-24.088   c0.088,0.065,0.139,0.095,0.178,0.135c1.083,1.082,2.181,2.148,3.241,3.25c4.788,4.972,4.721,12.627-0.142,17.522   c-0.971,0.977-1.947,1.946-2.92,2.921c-0.097,0.099-0.18,0.213-0.269,0.318C88.09,62.096,88.058,62.075,88.025,62.057z"
       id="path90" /><path
       fill-rule="evenodd"
       clip-rule="evenodd"
       d="M55.838,75.451c-2.187,1.695-9.049,1.677-11.051,0.018   c0.608-0.071,1.2-0.102,1.771-0.223c0.606-0.129,1.211-0.302,1.785-0.532c0.794-0.32,1.392-0.885,1.753-1.712   c1.035,1.956,2.898,2.201,4.781,2.403C55.166,75.436,55.458,75.435,55.838,75.451z"
       id="path92" /></g></svg>