<?xml version="1.0" encoding="UTF-8" standalone="no"?><svg xmlns="http://www.w3.org/2000/svg" xmlns:xlink="http://www.w3.org/1999/xlink"><symbol viewBox="-12.5 0 125 125" id="face" xmlns="http://www.w3.org/2000/svg"><g fill-rule="evenodd" clip-rule="evenodd"><path d="M78.768 50.286c-.05 3.689-.481 7.356-1.762 10.886-.718 1.981-1.67 3.832-3.148 5.366-2.333 2.419-5.186 2.89-8.346 1.612-1.871-.757-3.351-2.061-4.559-3.629-1.396-1.816-2.686-3.717-4.006-5.591-1.014-1.44-2.019-2.886-3.393-4.02-1.168-.968-2.488-1.485-4.025-1.31-1.412.161-2.566.871-3.493 1.885-.935 1.022-1.792 2.121-2.614 3.238-1.413 1.916-2.717 3.915-4.169 5.802-1.265 1.642-2.824 2.987-4.806 3.729-1.875.7-3.776.859-5.659.026-1.564-.691-2.719-1.868-3.663-3.263-1.469-2.177-2.335-4.605-2.867-7.153-1.161-5.566-1.157-11.113.418-16.61.75-2.618 1.839-5.078 3.614-7.183 1.028-1.22 2.23-2.209 3.818-2.611 1.246-.315 2.483-.139 3.706.155 2.018.483 3.81 1.484 5.611 2.466 1.81.988 3.604 2.015 5.47 2.883 3.651 1.7 7.333 1.552 10.918-.212 2.111-1.038 4.146-2.233 6.22-3.35 1.495-.805 3.038-1.474 4.703-1.874 2.811-.677 5.091.159 6.968 2.286 1.559 1.767 2.602 3.826 3.38 6.029 1.188 3.365 1.675 6.845 1.684 10.443z"/><path d="M34.234 84.961C20.175 78.765 9.693 63.116 12.001 45.066c2.396-18.726 18.188-33.039 37.161-33.477 19.411-.448 35.396 13.353 38.7 31.315 3.533 19.197-7.459 35.682-21.901 42.069.217-.259.395-.462.563-.676 1.532-1.953 2.373-4.17 2.478-6.653.013-.271.106-.435.325-.592 6.024-4.366 10.228-10.063 12.468-17.172 1.216-3.855 1.676-7.813 1.432-11.853-.392-6.452-2.442-12.323-6.276-17.524-5.021-6.807-11.659-11.21-19.962-12.953-7.834-1.645-15.376-.668-22.425 3.146-8.869 4.799-14.55 12.168-16.825 22.011-2.833 12.251 1.599 24.971 11.333 32.957.62.509 1.279.971 1.907 1.472.112.089.22.259.226.396.116 2.797 1.116 5.231 2.967 7.324.016.018.025.041.062.105z"/><path d="M65.849 79.231c.918 2.013.744 3.862-.532 5.622.084.091.169.178.292.309a38.114 38.114 0 01-15.483 3.259c-5.387.006-10.545-1.081-15.508-3.247l.292-.322c-.755-1.011-1.173-2.151-1.111-3.435a5.203 5.203 0 01.586-2.174c4.933 2.633 10.173 3.942 15.728 3.94 5.554 0 10.794-1.312 15.736-3.952z"/><path d="M66.903 82.734c.191-1.177.031-2.305-.417-3.401-.744-1.831-2.164-2.873-3.982-3.465-1.55-.504-3.152-.704-4.766-.841-1.459-.127-2.917-.25-4.374-.386-.212-.021-.422-.095-.628-.159-2.099-.66-2.941-2.584-1.987-4.581.719-1.506 2.018-2.26 3.579-2.591 1.706-.359 3.198.097 4.463 1.305.331.315.678.621 1.048.89.544.395 1.153.532 1.809.303.869-.308 1.266-1.018 1.086-1.928-.013-.061-.018-.123-.028-.194 4.748 2.201 7.767 9.124 4.197 15.048zM37.509 67.666c0 .073.008.112-.001.147-.171.682-.033 1.274.543 1.707.627.47 1.333.559 2.01.163.489-.285.936-.661 1.349-1.053 1.11-1.055 2.409-1.565 3.934-1.406 1.874.193 3.837 1.302 4.371 3.335.47 1.787-.284 3.234-2.025 3.854-1.283.455-2.626.467-3.962.535-1.951.102-3.892.277-5.772.848-1.432.434-2.722 1.103-3.588 2.384-.897 1.328-1.286 2.787-1.042 4.392l.021.149c0 .008-.013.016-.019.023-3.255-5.041-1.311-12.315 4.181-15.078zM12.282 37.643c-2.597 8.278-2.591 16.497.026 24.791-.13-.097-.2-.136-.253-.188-1.234-1.235-2.485-2.456-3.696-3.714-4.436-4.61-4.486-12.212-.1-16.88 1.239-1.319 2.548-2.572 3.826-3.854.043-.042.095-.075.197-.155zM88.025 62.057c2.466-8.014 2.472-16.026.008-24.088.088.065.139.095.178.135 1.083 1.082 2.181 2.148 3.241 3.25 4.788 4.972 4.721 12.627-.142 17.522-.971.977-1.947 1.946-2.92 2.921-.097.099-.18.213-.269.318-.031-.019-.063-.04-.096-.058z"/><path d="M55.838 75.451c-2.187 1.695-9.049 1.677-11.051.018.608-.071 1.2-.102 1.771-.223a10.936 10.936 0 001.785-.532 3.133 3.133 0 001.753-1.712c1.035 1.956 2.898 2.201 4.781 2.403.289.031.581.03.961.046z"/></g></symbol></svg>